<?xml version="1.0" encoding="iso-8859-1"?><!-- Generator: Adobe Illustrator 21.0.2, SVG Export Plug-In . SVG Version: 6.00 Build 0)  --><svg xmlns="http://www.w3.org/2000/svg" xmlns:xlink="http://www.w3.org/1999/xlink" viewBox="0 0 80 80" width="80px" height="80px"><circle cx="40" cy="28" r="1"/><circle cx="40" cy="50" r="1"/><circle cx="51" cy="39" r="1"/><circle cx="29" cy="39" r="1"/><ellipse transform="matrix(0.7071 -0.7071 0.7071 0.7071 -8.0833 42.9289)" cx="47.778" cy="31.222" rx="1" ry="1"/><ellipse transform="matrix(0.7071 -0.7071 0.7071 0.7071 -23.6396 36.4853)" cx="32.222" cy="46.778" rx="1" ry="1"/><ellipse transform="matrix(0.7071 -0.7071 0.7071 0.7071 -19.0833 47.4853)" cx="47.778" cy="46.778" rx="1" ry="1"/><ellipse transform="matrix(0.7071 -0.7071 0.7071 0.7071 -12.6396 31.9289)" cx="32.222" cy="31.222" rx="1" ry="1"/><ellipse transform="matrix(0.9239 -0.3827 0.3827 0.9239 -8.3112 15.8915)" cx="35.79" cy="28.837" rx="1" ry="1"/><ellipse transform="matrix(0.9239 -0.3827 0.3827 0.9239 -15.4485 20.6605)" cx="44.21" cy="49.163" rx="1" ry="1"/><ellipse transform="matrix(0.9239 -0.3827 0.3827 0.9239 -9.4953 21.8447)" cx="50.163" cy="34.79" rx="1" ry="1"/><ellipse transform="matrix(0.9239 -0.3827 0.3827 0.9239 -14.2643 14.7074)" cx="29.837" cy="43.21" rx="1" ry="1"/><ellipse transform="matrix(0.3827 -0.9239 0.9239 0.3827 0.6491 58.646)" cx="44.21" cy="28.837" rx="1" ry="1"/><ellipse transform="matrix(0.3827 -0.9239 0.9239 0.3827 -23.3263 63.415)" cx="35.79" cy="49.163" rx="1" ry="1"/><ellipse transform="matrix(0.3827 -0.9239 0.9239 0.3827 -8.9541 73.0182)" cx="50.163" cy="43.21" rx="1" ry="1"/><ellipse transform="matrix(0.3827 -0.9239 0.9239 0.3827 -13.7231 49.0428)" cx="29.837" cy="34.79" rx="1" ry="1"/><path style="fill:none;stroke:#000000;stroke-width:2;stroke-miterlimit:10;" d="M26.818,68h26.364C61.917,68,69,60.917,69,52.182V25.818C69,17.083,61.917,10,53.182,10H26.818C18.083,10,11,17.083,11,25.818v26.364C11,60.917,18.083,68,26.818,68z"/><circle style="fill:none;stroke:#000000;stroke-width:2;stroke-miterlimit:10;" cx="40" cy="39" r="16"/><circle cx="58" cy="22" r="2.5"/></svg>